<svg width="512" height="512" viewBox="0 0 512 512" fill="none" xmlns="http://www.w3.org/2000/svg">
<rect width="512" height="512" fill="black"/>
<rect x="16" y="16" width="480" height="480" fill="white"/>
<path d="M74.928 203.168H86.448V245.792C89.04 241.04 92.496 237.44 96.816 234.992C100.848 232.688 105.312 231.536 110.352 231.536C118.992 231.536 125.76 233.984 130.368 239.168C134.976 244.208 137.28 251.552 137.28 261.056V308H125.76V262.784C125.76 255.872 124.032 250.544 120.864 246.8C117.408 243.056 112.656 241.184 106.464 241.184C100.704 241.184 95.952 243.488 92.208 248.096C88.32 252.704 86.448 258.608 86.448 265.52V308H74.928V203.168ZM154.944 233.552H166.464V279.056C166.464 286.112 167.904 291.44 170.928 294.896C173.952 298.352 178.848 300.224 185.616 300.224C190.512 300.224 194.976 298.208 198.864 294.464C202.896 290.432 205.344 285.248 206.208 278.912V233.552H217.728V308H206.208V296.48C200.16 305.408 192.096 310.016 182.016 310.016C163.872 310.016 154.944 299.792 154.944 279.632V233.552ZM227.314 233.552H239.842L262.594 292.304L284.626 233.552H297.298L256.546 336.512H244.018L256.834 306.272L227.314 233.552ZM316.463 205.472C318.911 205.472 320.927 206.192 322.655 207.92C324.383 209.36 325.247 211.376 325.247 213.968C325.247 216.416 324.383 218.432 322.655 220.16C320.927 221.744 318.911 222.608 316.463 222.608C314.015 222.608 311.999 221.744 310.271 220.16C308.543 218.432 307.823 216.416 307.823 213.968C307.823 211.376 308.543 209.36 310.271 207.92C311.999 206.192 314.015 205.472 316.463 205.472ZM310.703 233.552H322.223V308H310.703V233.552ZM338.763 233.552H352.299L371.595 260.048L390.747 233.552H404.283L377.931 268.544L407.451 308H393.771L371.595 277.04L349.275 308H335.595L365.115 268.544L338.763 233.552ZM426.573 205.472C429.021 205.472 431.037 206.192 432.765 207.92C434.493 209.36 435.357 211.376 435.357 213.968C435.357 216.416 434.493 218.432 432.765 220.16C431.037 221.744 429.021 222.608 426.573 222.608C424.125 222.608 422.109 221.744 420.381 220.16C418.653 218.432 417.933 216.416 417.933 213.968C417.933 211.376 418.653 209.36 420.381 207.92C422.109 206.192 424.125 205.472 426.573 205.472ZM420.813 233.552H432.333V308H420.813V233.552Z" fill="black"/>
</svg>